# xmcd
#
# Track frame offsets:
#	150
#	17390
#	34058
#	48798
#	63610
#	82133
#	98546
#	115892
#	132906
#	146846
#	165978
#	186417
#	203541
#	216556
#	229717
#	247066
#	263095
#
# Disc length: 3941 seconds
#
# Revision: 1
# Processed by: cddbd v1.5.2PL0 Copyright (c) Steve Scherf et al.
# Submitted via: audiograbber 1.83.01
#
DISCID=ee0f6311
DTITLE=Erinevad - Eesti Lax 2
DYEAR=2009
DGENRE=Pop
TTITLE0=Anmatino - Kirgede Tants
TTITLE1=Hellad Velled - C'est La Vie
TTITLE2=Niki - Päiksekild
TTITLE3=PS Troika - Makarone
TTITLE4=Sulliwan - Läbi Pisarate Naer
TTITLE5=Heleri - Põlevad Tunded
TTITLE6=Rhythm Duo - Meile Kahele (Eurodance Mix)
TTITLE7=Marco - Sind Veel Ma Soovin
TTITLE8=Bad Orange - Kuu (Velvet Voice Mix)
TTITLE9=Meie Mees - Tsiki Briki Beibe
TTITLE10=AM2 - Armastuse Tee
TTITLE11=Sulo - Öökuninganna
TTITLE12=Ska Faktor - Suudle Mind
TTITLE13=Carlando - Mustlased
TTITLE14=Tiia Paist - Koju Läen
TTITLE15=Aivar Margna - Selles Kaunis Laulus
TTITLE16=Marco - Popurrii
EXTD=
EXTT0=
EXTT1=
EXTT2=
EXTT3=
EXTT4=
EXTT5=
EXTT6=
EXTT7=
EXTT8=
EXTT9=
EXTT10=
EXTT11=
EXTT12=
EXTT13=
EXTT14=
EXTT15=
EXTT16=
PLAYORDER=
